<svg width="173" height="55" viewBox="0 0 173 55" fill="none" xmlns="http://www.w3.org/2000/svg">
    <path d="M76.1314 30.4148H80.0518L82.0227 32.9503L83.9616 35.2088L87.6158 39.7898H83.3118L80.7976 36.7003L79.5085 34.8679L76.1314 30.4148ZM87.946 27.0909C87.946 29.4702 87.495 31.4943 86.593 33.1634C85.6982 34.8324 84.4766 36.1072 82.9283 36.9879C81.3871 37.8615 79.6541 38.2983 77.7294 38.2983C75.7905 38.2983 74.0504 37.858 72.5092 36.9773C70.968 36.0966 69.75 34.8217 68.8551 33.1527C67.9602 31.4837 67.5128 29.4631 67.5128 27.0909C67.5128 24.7116 67.9602 22.6875 68.8551 21.0185C69.75 19.3494 70.968 18.0781 72.5092 17.2045C74.0504 16.3239 75.7905 15.8835 77.7294 15.8835C79.6541 15.8835 81.3871 16.3239 82.9283 17.2045C84.4766 18.0781 85.6982 19.3494 86.593 21.0185C87.495 22.6875 87.946 24.7116 87.946 27.0909ZM83.2692 27.0909C83.2692 25.5497 83.0384 24.25 82.5767 23.1918C82.1222 22.1335 81.4794 21.331 80.6484 20.7841C79.8175 20.2372 78.8445 19.9638 77.7294 19.9638C76.6143 19.9638 75.6413 20.2372 74.8104 20.7841C73.9794 21.331 73.3331 22.1335 72.8714 23.1918C72.4169 24.25 72.1896 25.5497 72.1896 27.0909C72.1896 28.6321 72.4169 29.9318 72.8714 30.9901C73.3331 32.0483 73.9794 32.8509 74.8104 33.3977C75.6413 33.9446 76.6143 34.218 77.7294 34.218C78.8445 34.218 79.8175 33.9446 80.6484 33.3977C81.4794 32.8509 82.1222 32.0483 82.5767 30.9901C83.0384 29.9318 83.2692 28.6321 83.2692 27.0909ZM91.3631 38V16.1818H95.976V34.1967H105.33V38H91.3631ZM115.757 38.3196C114.074 38.3196 112.625 37.9787 111.41 37.2969C110.203 36.608 109.272 35.6349 108.619 34.3778C107.966 33.1136 107.639 31.6186 107.639 29.8928C107.639 28.2095 107.966 26.7322 108.619 25.4609C109.272 24.1896 110.192 23.1989 111.378 22.4886C112.571 21.7784 113.971 21.4233 115.576 21.4233C116.655 21.4233 117.66 21.5973 118.591 21.9453C119.528 22.2862 120.345 22.8011 121.041 23.4901C121.744 24.179 122.291 25.0455 122.681 26.0895C123.072 27.1264 123.267 28.3409 123.267 29.733V30.9794H109.45V28.1669H118.995C118.995 27.5135 118.853 26.9347 118.569 26.4304C118.285 25.9261 117.891 25.532 117.387 25.2479C116.89 24.9567 116.311 24.8111 115.65 24.8111C114.961 24.8111 114.35 24.9709 113.818 25.2905C113.292 25.603 112.88 26.0256 112.582 26.5582C112.284 27.0838 112.131 27.6697 112.124 28.3161V30.9901C112.124 31.7997 112.273 32.4993 112.571 33.0888C112.877 33.6783 113.306 34.1328 113.86 34.4524C114.414 34.772 115.071 34.9318 115.831 34.9318C116.336 34.9318 116.797 34.8608 117.216 34.7188C117.635 34.5767 117.994 34.3636 118.292 34.0795C118.591 33.7955 118.818 33.4474 118.974 33.0355L123.172 33.3125C122.958 34.321 122.522 35.2017 121.861 35.9545C121.208 36.7003 120.363 37.2827 119.326 37.7017C118.296 38.1136 117.106 38.3196 115.757 38.3196ZM130.895 38.3089C129.851 38.3089 128.921 38.1278 128.104 37.7656C127.287 37.3963 126.641 36.853 126.165 36.1357C125.696 35.4112 125.462 34.5092 125.462 33.4297C125.462 32.5206 125.629 31.7571 125.963 31.1392C126.297 30.5213 126.751 30.0241 127.326 29.6477C127.902 29.2713 128.555 28.9872 129.287 28.7955C130.025 28.6037 130.799 28.4688 131.609 28.3906C132.561 28.2912 133.328 28.1989 133.91 28.1136C134.493 28.0213 134.915 27.8864 135.178 27.7088C135.441 27.5312 135.572 27.2685 135.572 26.9205V26.8565C135.572 26.1818 135.359 25.6598 134.933 25.2905C134.514 24.9212 133.917 24.7365 133.143 24.7365C132.326 24.7365 131.676 24.9176 131.194 25.2798C130.711 25.6349 130.391 26.0824 130.235 26.6222L126.037 26.2812C126.25 25.2869 126.669 24.4276 127.294 23.7031C127.919 22.9716 128.725 22.4105 129.713 22.0199C130.707 21.6222 131.858 21.4233 133.164 21.4233C134.074 21.4233 134.944 21.5298 135.775 21.7429C136.613 21.956 137.355 22.2862 138.001 22.7337C138.654 23.1811 139.169 23.7564 139.546 24.4595C139.922 25.1555 140.11 25.9901 140.11 26.9631V38H135.806V35.7308H135.679C135.416 36.2422 135.064 36.6932 134.624 37.0838C134.184 37.4673 133.654 37.7692 133.037 37.9893C132.419 38.2024 131.705 38.3089 130.895 38.3089ZM132.195 35.1768C132.863 35.1768 133.452 35.0455 133.963 34.7827C134.475 34.5128 134.876 34.1506 135.167 33.696C135.458 33.2415 135.604 32.7266 135.604 32.1513V30.4148C135.462 30.5071 135.267 30.5923 135.018 30.6705C134.777 30.7415 134.503 30.8089 134.198 30.8729C133.892 30.9297 133.587 30.983 133.282 31.0327C132.976 31.0753 132.699 31.1143 132.451 31.1499C131.918 31.228 131.453 31.3523 131.055 31.5227C130.657 31.6932 130.348 31.924 130.128 32.2152C129.908 32.4993 129.798 32.8544 129.798 33.2805C129.798 33.8984 130.022 34.3707 130.469 34.6974C130.924 35.017 131.499 35.1768 132.195 35.1768ZM143.631 38V21.6364H148.031V24.4915H148.202C148.5 23.4759 149.001 22.7088 149.704 22.1903C150.407 21.6648 151.217 21.402 152.133 21.402C152.36 21.402 152.605 21.4162 152.868 21.4446C153.131 21.473 153.362 21.5121 153.56 21.5618V25.5888C153.347 25.5249 153.053 25.468 152.676 25.4183C152.3 25.3686 151.955 25.3438 151.643 25.3438C150.975 25.3438 150.379 25.4893 149.853 25.7805C149.335 26.0646 148.923 26.4624 148.617 26.9737C148.319 27.4851 148.17 28.0746 148.17 28.7422V38H143.631ZM160.445 28.5398V38H155.907V21.6364H160.232V24.5234H160.424C160.786 23.5717 161.393 22.8189 162.246 22.2649C163.098 21.7038 164.131 21.4233 165.346 21.4233C166.482 21.4233 167.473 21.6719 168.318 22.169C169.163 22.6662 169.82 23.3764 170.289 24.2997C170.758 25.2159 170.992 26.3097 170.992 27.581V38H166.454V28.3906C166.461 27.3892 166.205 26.608 165.687 26.0469C165.168 25.4787 164.454 25.1946 163.545 25.1946C162.934 25.1946 162.395 25.326 161.926 25.5888C161.464 25.8516 161.102 26.2351 160.839 26.7393C160.584 27.2365 160.452 27.8366 160.445 28.5398Z"
          fill="#7253A4"/>
    <path d="M0 17.1875L27.5 30.9375L51.5625 18.9062V48.125H55V17.1875L27.5 3.4375L0 17.1875Z" fill="#7253A4"/>
    <path d="M10.3125 24.2653V39.5313L27.5 48.125L44.6875 39.5313V24.2653L27.5 32.8591L10.3125 24.2653Z"
          fill="#7253A4"/>
</svg>